{
.appVersion = "3108";
DisplayStrings = (
W
);
customParameters = (
{
name = Axes;
value = (
{
Name = Width;
Tag = wdth;
}
);
}
);
date = "2022-03-16 02:47:03 +0000";
familyName = Bebon;
fontMaster = (
{
ascender = 800;
capHeight = 700;
descender = -200;
iconName = SemiLight_Condensed;
id = "4B7577DA-40A8-4E49-84C6-E8CA9EFA7FA1";
xHeight = 500;
},
{
ascender = 800;
capHeight = 700;
custom = Wide;
descender = -200;
iconName = SemiLight_Extended;
id = m003;
weightValue = 200;
xHeight = 500;
}
);
glyphs = (
{
glyphname = A;
lastChange = "2022-04-14 03:49:17 +0000";
layers = (
{
layerId = "4B7577DA-40A8-4E49-84C6-E8CA9EFA7FA1";
paths = (
{
closed = 1;
nodes = (
"135 0 LINE",
"375 707 LINE",
"360 717 LINE",
"115 0 LINE"
);
},
{
closed = 1;
nodes = (
"115 0 LINE",
"208 271 LINE",
"162 137 OFFCURVE",
"72 0 OFFCURVE",
"-20 0 CURVE"
);
},
{
closed = 1;
nodes = (
"498 297 LINE",
"498 317 LINE",
"234 317 LINE",
"234 297 LINE"
);
},
{
closed = 1;
nodes = (
"302 0 LINE",
"210 0 OFFCURVE",
"162 77 OFFCURVE",
"205 211 CURVE",
"134 0 LINE"
);
},
{
closed = 1;
nodes = (
"225 265 OFFCURVE",
"275 297 OFFCURVE",
"321 297 CURVE",
"236 297 LINE",
"213 232 LINE"
);
},
{
closed = 1;
nodes = (
"328 317 LINE",
"282 317 OFFCURVE",
"253 347 OFFCURVE",
"265 383 CURVE",
"243 317 LINE"
);
},
{
closed = 1;
nodes = (
"490 317 LINE",
"468 383 LINE",
"480 347 OFFCURVE",
"451 317 OFFCURVE",
"405 317 CURVE"
);
},
{
closed = 1;
nodes = (
"497 297 LINE",
"412 297 LINE",
"458 297 OFFCURVE",
"507 265 OFFCURVE",
"519 232 CURVE"
);
},
{
closed = 1;
nodes = (
"599 0 LINE",
"528 211 LINE",
"575 77 OFFCURVE",
"523 0 OFFCURVE",
"431 0 CURVE"
);
},
{
closed = 1;
nodes = (
"752 0 LINE",
"660 0 OFFCURVE",
"570 137 OFFCURVE",
"524 271 CURVE",
"617 0 LINE"
);
},
{
closed = 1;
nodes = (
"617 0 LINE",
"372 717 LINE",
"357 707 LINE",
"598 0 LINE"
);
},
{
closed = 1;
nodes = (
"334 579 OFFCURVE",
"399 579 OFFCURVE",
"452 428 CURVE",
"366 690 LINE",
"281 428 LINE"
);
},
{
closed = 1;
nodes = (
"374 711 LINE",
"366 735 LINE",
"358 711 LINE"
);
}
);
width = 732;
},
{
layerId = m003;
paths = (
{
closed = 1;
nodes = (
"226 0 LINE",
"669 707 LINE",
"651 717 LINE",
"205 0 LINE"
);
},
{
closed = 1;
nodes = (
"205 0 LINE",
"374 271 LINE",
"234 49 OFFCURVE",
"52 0 OFFCURVE",
"-40 0 CURVE"
);
},
{
closed = 1;
nodes = (
"904 297 LINE",
"892 317 LINE",
"413 317 LINE",
"408 297 LINE"
);
},
{
closed = 1;
nodes = (
"602 0 LINE",
"510 0 OFFCURVE",
"217 -21 OFFCURVE",
"351 201 CURVE",
"224 0 LINE"
);
},
{
closed = 1;
nodes = (
"396 272 OFFCURVE",
"503 297 OFFCURVE",
"589 297 CURVE",
"411 297 LINE",
"370 231 LINE"
);
},
{
closed = 1;
nodes = (
"596 317 LINE",
"510 317 OFFCURVE",
"442 346 OFFCURVE",
"465 383 CURVE",
"423 317 LINE"
);
},
{
closed = 1;
nodes = (
"892 317 LINE",
"850 383 LINE",
"873 346 OFFCURVE",
"805 317 OFFCURVE",
"719 317 CURVE"
);
},
{
closed = 1;
nodes = (
"904 297 LINE",
"726 297 LINE",
"812 297 OFFCURVE",
"918 273 OFFCURVE",
"944 232 CURVE"
);
},
{
closed = 1;
nodes = (
"1089 0 LINE",
"964 201 LINE",
"1098 -21 OFFCURVE",
"803 0 OFFCURVE",
"711 0 CURVE"
);
},
{
closed = 1;
nodes = (
"1353 0 LINE",
"1261 0 OFFCURVE",
"1079 49 OFFCURVE",
"939 271 CURVE",
"1108 0 LINE"
);
},
{
closed = 1;
nodes = (
"1108 0 LINE",
"663 717 LINE",
"647 707 LINE",
"1089 0 LINE"
);
},
{
closed = 1;
nodes = (
"608 611 OFFCURVE",
"707 612 OFFCURVE",
"829 417 CURVE",
"657 692 LINE",
"486 417 LINE"
);
},
{
closed = 1;
nodes = (
"667 711 LINE",
"657 727 LINE",
"647 711 LINE"
);
}
);
width = 1313;
}
);
leftMetricsKey = H;
rightMetricsKey = H;
unicode = 0041;
},
{
glyphname = B;
lastChange = "2022-04-07 03:49:39 +0000";
layers = (
{
components = (
{
name = corner;
transform = "{0.42, 0, 0, -0.66, -20, 462}";
},
{
name = corner;
transform = "{-0.42, 0, 0, -0.32, 337, 244}";
},
{
name = corner;
transform = "{0.42, 0, 0, 0.66, -20, 238}";
},
{
name = corner;
transform = "{-0.42, 0, 0, 0.32, 337, 116}";
},
{
name = corner;
transform = "{-0.42, 0, 0, -0.32, 336, 584}";
},
{
name = corner;
transform = "{0.46, 0, 0, -0.36, 445, 272}";
},
{
name = corner;
transform = "{-0.42, 0, 0, 0.32, 336, 456}";
},
{
name = corner;
transform = "{0.42, 0, 0, 0.32, 461, 116}";
},
{
name = corner;
transform = "{0.42, 0, 0, -0.32, 380, 584}";
},
{
name = corner;
transform = "{0.46, 0, 0, 0.36, 364, 428}";
}
);
layerId = "4B7577DA-40A8-4E49-84C6-E8CA9EFA7FA1";
paths = (
{
closed = 1;
nodes = (
"148 340 LINE",
"648 340 LINE",
"648 0 LINE",
"148 0 LINE"
);
},
{
closed = 1;
nodes = (
"629 20 LINE",
"629 340 LINE",
"169 340 LINE",
"169 20 LINE"
);
},
{
closed = 1;
nodes = (
"148 700 LINE",
"568 700 LINE",
"568 340 LINE",
"148 340 LINE"
);
},
{
closed = 1;
nodes = (
"548 360 LINE",
"548 680 LINE",
"168 680 LINE",
"168 360 LINE"
);
},
{
closed = 1;
nodes = (
"568 360 LINE",
"648 360 LINE",
"648 340 LINE",
"568 340 LINE"
);
}
);
width = 718;
},
{
components = (
{
name = corner;
transform = "{0.84, 0, 0, -0.66, -40, 462}";
},
{
name = corner;
transform = "{-0.84, 0, 0, -0.32, 653, 244}";
},
{
name = corner;
transform = "{0.84, 0, 0, 0.66, -40, 238}";
},
{
name = corner;
transform = "{-0.84, 0, 0, 0.32, 653, 116}";
},
{
name = corner;
transform = "{-0.84, 0, 0, -0.32, 652, 584}";
},
{
name = corner;
transform = "{0.92, 0, 0, -0.36, 859, 272}";
},
{
name = corner;
transform = "{-0.84, 0, 0, 0.32, 652, 456}";
},
{
name = corner;
transform = "{0.84, 0, 0, 0.32, 891, 116}";
},
{
name = corner;
transform = "{0.84, 0, 0, -0.32, 750, 584}";
},
{
name = corner;
transform = "{0.92, 0, 0, 0.36, 718, 428}";
}
);
layerId = m003;
paths = (
{
closed = 1;
nodes = (
"296 340 LINE",
"1246 340 LINE",
"1246 0 LINE",
"296 0 LINE"
);
},
{
closed = 1;
nodes = (
"1227 20 LINE",
"1227 340 LINE",
"317 340 LINE",
"317 20 LINE"
);
},
{
closed = 1;
nodes = (
"296 700 LINE",
"1106 700 LINE",
"1106 340 LINE",
"296 340 LINE"
);
},
{
closed = 1;
nodes = (
"1086 360 LINE",
"1086 680 LINE",
"316 680 LINE",
"316 360 LINE"
);
},
{
closed = 1;
nodes = (
"1106 360 LINE",
"1246 360 LINE",
"1246 340 LINE",
"1106 340 LINE"
);
}
);
width = 1386;
}
);
leftMetricsKey = H;
rightMetricsKey = O;
unicode = 0042;
},
{
glyphname = C;
lastChange = "2022-04-07 03:01:00 +0000";
layers = (
{
components = (
{
name = corner;
transform = "{-0.46, 0, 0, -0.7, 274, 510}";
},
{
name = corner;
transform = "{0.5, 0, 0, -0.74, 370, 538}";
},
{
name = corner;
transform = "{-0.46, 0, 0, 0.7, 274, 190}";
},
{
name = corner;
transform = "{0.5, 0, 0, 0.74, 370, 162}";
}
);
layerId = "4B7577DA-40A8-4E49-84C6-E8CA9EFA7FA1";
paths = (
{
closed = 1;
nodes = (
"70 700 LINE",
"90 700 LINE",
"90 0 LINE",
"70 0 LINE"
);
},
{
closed = 1;
nodes = (
"70 20 LINE",
"570 20 LINE",
"570 0 LINE",
"70 0 LINE"
);
},
{
closed = 1;
nodes = (
"70 700 LINE",
"570 700 LINE",
"570 680 LINE",
"70 680 LINE"
);
}
);
width = 640;
},
{
components = (
{
name = corner;
transform = "{-0.92, 0, 0, -0.7, 528, 510}";
},
{
name = corner;
transform = "{1, 0, 0, -0.74, 740, 538}";
},
{
name = corner;
transform = "{-0.92, 0, 0, 0.7, 528, 190}";
},
{
name = corner;
transform = "{1, 0, 0, 0.74, 740, 162}";
}
);
layerId = m003;
paths = (
{
closed = 1;
nodes = (
"140 700 LINE",
"160 700 LINE",
"160 0 LINE",
"140 0 LINE"
);
},
{
closed = 1;
nodes = (
"140 20 LINE",
"1140 20 LINE",
"1140 0 LINE",
"140 0 LINE"
);
},
{
closed = 1;
nodes = (
"140 700 LINE",
"1140 700 LINE",
"1140 680 LINE",
"140 680 LINE"
);
}
);
width = 1280;
}
);
leftMetricsKey = O;
rightMetricsKey = O;
unicode = 0043;
},
{
glyphname = D;
lastChange = "2022-04-07 03:16:30 +0000";
layers = (
{
components = (
{
name = corner;
transform = "{-0.42, 0, 0, 0.66, 336, 218}";
},
{
name = corner;
transform = "{0.46, 0, 0, 0.7, 444, 190}";
},
{
name = corner;
transform = "{-0.42, 0, 0, -0.66, 336, 482}";
},
{
name = corner;
transform = "{0.46, 0, 0, -0.7, 444, 510}";
},
{
name = corner;
transform = "{0.42, 0, 0, 0.66, -20, 238}";
},
{
name = corner;
transform = "{0.42, 0, 0, -0.66, -20, 462}";
}
);
layerId = "4B7577DA-40A8-4E49-84C6-E8CA9EFA7FA1";
paths = (
{
closed = 1;
nodes = (
"148 700 LINE",
"648 700 LINE",
"648 0 LINE",
"148 0 LINE"
);
},
{
closed = 1;
nodes = (
"628 20 LINE",
"628 680 LINE",
"168 680 LINE",
"168 20 LINE"
);
}
);
width = 718;
},
{
components = (
{
name = corner;
transform = "{-0.84, 0, 0, 0.66, 652, 218}";
},
{
name = corner;
transform = "{0.92, 0, 0, 0.7, 858, 190}";
},
{
name = corner;
transform = "{-0.84, 0, 0, -0.66, 652, 482}";
},
{
name = corner;
transform = "{0.92, 0, 0, -0.7, 858, 510}";
},
{
name = corner;
transform = "{0.84, 0, 0, 0.66, -40, 238}";
},
{
name = corner;
transform = "{0.84, 0, 0, -0.66, -40, 462}";
}
);
layerId = m003;
paths = (
{
closed = 1;
nodes = (
"296 700 LINE",
"1246 700 LINE",
"1246 0 LINE",
"296 0 LINE"
);
},
{
closed = 1;
nodes = (
"1226 20 LINE",
"1226 680 LINE",
"316 680 LINE",
"316 20 LINE"
);
}
);
width = 1386;
}
);
leftMetricsKey = H;
rightMetricsKey = O;
unicode = 0044;
},
{
glyphname = E;
lastChange = "2022-04-07 03:43:46 +0000";
layers = (
{
components = (
{
name = corner;
transform = "{-0.42, 0, 0, 0.62, 336, 246}";
},
{
name = corner;
transform = "{0.42, 0, 0, 0.66, -20, 238}";
},
{
name = corner;
transform = "{-0.42, 0, 0, -0.62, 336, 454}";
},
{
name = corner;
transform = "{0.42, 0, 0, -0.66, -20, 462}";
},
{
name = corner;
transform = "{0.46, 0, 0, 0.54, 444, 302}";
},
{
name = corner;
transform = "{0.46, 0, 0, -0.54, 444, 398}";
},
{
name = corner;
transform = "{0.23, 0, 0, 0.19, 476, 217}";
},
{
name = corner;
transform = "{-0.23, 0, 0, -0.19, 260, 503}";
},
{
name = corner;
transform = "{-0.23, 0, 0, 0.19, 260, 217}";
},
{
name = corner;
transform = "{0.23, 0, 0, -0.19, 476, 503}";
}
);
layerId = "4B7577DA-40A8-4E49-84C6-E8CA9EFA7FA1";
paths = (
{
closed = 1;
nodes = (
"628 700 LINE",
"628 680 LINE",
"148 680 LINE",
"148 700 LINE"
);
},
{
closed = 1;
nodes = (
"168 700 LINE",
"168 0 LINE",
"148 0 LINE",
"148 700 LINE"
);
},
{
closed = 1;
nodes = (
"628 20 LINE",
"628 0 LINE",
"148 0 LINE",
"148 20 LINE"
);
},
{
closed = 1;
nodes = (
"568 370 LINE",
"568 350 LINE",
"168 350 LINE",
"168 370 LINE"
);
}
);
width = 698;
},
{
components = (
{
name = corner;
transform = "{-0.84, 0, 0, 0.62, 652, 246}";
},
{
name = corner;
transform = "{0.84, 0, 0, 0.66, -40, 238}";
},
{
name = corner;
transform = "{-0.84, 0, 0, -0.62, 652, 454}";
},
{
name = corner;
transform = "{0.84, 0, 0, -0.66, -40, 462}";
},
{
name = corner;
transform = "{0.92, 0, 0, 0.54, 838, 302}";
},
{
name = corner;
transform = "{0.92, 0, 0, -0.54, 838, 398}";
},
{
name = corner;
transform = "{0.46, 0, 0, 0.19, 892, 217}";
},
{
name = corner;
transform = "{-0.46, 0, 0, -0.19, 500, 503}";
},
{
name = corner;
transform = "{-0.46, 0, 0, 0.19, 500, 217}";
},
{
name = corner;
transform = "{0.46, 0, 0, -0.19, 892, 503}";
}
);
layerId = m003;
paths = (
{
closed = 1;
nodes = (
"1206 700 LINE",
"1206 680 LINE",
"296 680 LINE",
"296 700 LINE"
);
},
{
closed = 1;
nodes = (
"316 700 LINE",
"316 0 LINE",
"296 0 LINE",
"296 700 LINE"
);
},
{
closed = 1;
nodes = (
"1206 20 LINE",
"1206 0 LINE",
"296 0 LINE",
"296 20 LINE"
);
},
{
closed = 1;
nodes = (
"1076 370 LINE",
"1076 350 LINE",
"316 350 LINE",
"316 370 LINE"
);
}
);
width = 1346;
}
);
leftMetricsKey = H;
rightMetricsKey = O;
unicode = 0045;
},
{
glyphname = F;
lastChange = "2022-04-07 03:46:38 +0000";
layers = (
{
components = (
{
name = corner;
transform = "{-0.42, 0, 0, 0.62, 336, 246}";
},
{
name = corner;
transform = "{0.42, 0, 0, 0.66, -20, 238}";
},
{
name = corner;
transform = "{-0.42, 0, 0, -0.66, 336, 462}";
},
{
name = corner;
transform = "{0.42, 0, 0, -0.66, -20, 462}";
},
{
name = corner;
transform = "{0.46, 0, 0, 0.54, 444, 302}";
},
{
name = corner;
transform = "{0.23, 0, 0, 0.19, 476, 217}";
},
{
name = corner;
transform = "{-0.23, 0, 0, -0.19, 260, 503}";
},
{
name = corner;
transform = "{-0.23, 0, 0, 0.19, 260, 217}";
},
{
name = corner;
transform = "{0.23, 0, 0, -0.19, 476, 503}";
}
);
layerId = "4B7577DA-40A8-4E49-84C6-E8CA9EFA7FA1";
paths = (
{
closed = 1;
nodes = (
"628 700 LINE",
"628 680 LINE",
"148 680 LINE",
"148 700 LINE"
);
},
{
closed = 1;
nodes = (
"168 700 LINE",
"168 0 LINE",
"148 0 LINE",
"148 700 LINE"
);
},
{
closed = 1;
nodes = (
"568 370 LINE",
"568 350 LINE",
"168 350 LINE",
"168 370 LINE"
);
}
);
width = 698;
},
{
components = (
{
name = corner;
transform = "{-0.84, 0, 0, 0.62, 652, 246}";
},
{
name = corner;
transform = "{0.84, 0, 0, 0.66, -40, 238}";
},
{
name = corner;
transform = "{-0.84, 0, 0, -0.66, 652, 462}";
},
{
name = corner;
transform = "{0.84, 0, 0, -0.66, -40, 462}";
},
{
name = corner;
transform = "{0.92, 0, 0, 0.54, 868, 302}";
},
{
name = corner;
transform = "{0.46, 0, 0, 0.19, 952, 217}";
},
{
name = corner;
transform = "{-0.46, 0, 0, -0.19, 500, 503}";
},
{
name = corner;
transform = "{-0.46, 0, 0, 0.19, 500, 217}";
},
{
name = corner;
transform = "{0.46, 0, 0, -0.19, 952, 503}";
}
);
layerId = m003;
paths = (
{
closed = 1;
nodes = (
"1236 700 LINE",
"1236 680 LINE",
"296 680 LINE",
"296 700 LINE"
);
},
{
closed = 1;
nodes = (
"316 700 LINE",
"316 0 LINE",
"296 0 LINE",
"296 700 LINE"
);
},
{
closed = 1;
nodes = (
"1136 370 LINE",
"1136 350 LINE",
"316 350 LINE",
"316 370 LINE"
);
}
);
width = 1376;
}
);
leftMetricsKey = H;
rightMetricsKey = O;
unicode = 0046;
},
{
glyphname = G;
lastChange = "2022-04-14 02:53:18 +0000";
layers = (
{
components = (
{
name = corner;
transform = "{-0.46, 0, 0, -0.7, 274, 510}";
},
{
name = corner;
transform = "{0.46, 0, 0, -0.36, 366, 272}";
},
{
name = corner;
transform = "{-0.46, 0, 0, 0.7, 274, 190}";
},
{
name = corner;
transform = "{0.32, 0, 0, 0.26, 422, 158}";
},
{
name = corner;
transform = "{0.5, 0, 0, 0.74, 370, 162}";
},
{
name = corner;
transform = "{-0.32, 0, 0, 0.26, 428, 158}";
}
);
layerId = "4B7577DA-40A8-4E49-84C6-E8CA9EFA7FA1";
paths = (
{
closed = 1;
nodes = (
"70 700 LINE",
"90 700 LINE",
"90 0 LINE",
"70 0 LINE"
);
},
{
closed = 1;
nodes = (
"70 20 LINE",
"570 20 LINE",
"570 0 LINE",
"70 0 LINE"
);
},
{
closed = 1;
nodes = (
"550 360 LINE",
"570 360 LINE",
"570 0 LINE",
"550 0 LINE"
);
},
{
closed = 1;
nodes = (
"300 360 LINE",
"570 360 LINE",
"570 340 LINE",
"300 340 LINE"
);
},
{
closed = 1;
nodes = (
"70 700 LINE",
"570 700 LINE",
"570 680 LINE",
"70 680 LINE"
);
}
);
width = 640;
},
{
components = (
{
name = corner;
transform = "{-0.92, 0, 0, -0.7, 528, 510}";
},
{
name = corner;
transform = "{0.92, 0, 0, -0.36, 752, 272}";
},
{
name = corner;
transform = "{-0.92, 0, 0, 0.7, 528, 190}";
},
{
name = corner;
transform = "{0.64, 0, 0, 0.26, 864, 158}";
},
{
name = corner;
transform = "{1, 0, 0, 0.7, 740, 190}";
},
{
name = corner;
transform = "{-0.64, 0, 0, 0.38, 846, 74}";
}
);
layerId = m003;
paths = (
{
closed = 1;
nodes = (
"140 700 LINE",
"160 700 LINE",
"160 0 LINE",
"140 0 LINE"
);
},
{
closed = 1;
nodes = (
"140 20 LINE",
"1140 20 LINE",
"1140 0 LINE",
"140 0 LINE"
);
},
{
closed = 1;
nodes = (
"1120 360 LINE",
"1140 360 LINE",
"1140 0 LINE",
"1120 0 LINE"
);
},
{
closed = 1;
nodes = (
"590 360 LINE",
"1140 360 LINE",
"1140 340 LINE",
"590 340 LINE"
);
},
{
closed = 1;
nodes = (
"140 700 LINE",
"1140 700 LINE",
"1140 680 LINE",
"140 680 LINE"
);
}
);
width = 1280;
}
);
leftMetricsKey = O;
rightMetricsKey = O;
unicode = 0047;
},
{
glyphname = H;
lastChange = "2022-04-07 04:09:28 +0000";
layers = (
{
components = (
{
name = corner;
transform = "{-0.42, 0, 0, 0.66, 742, 238}";
},
{
name = corner;
transform = "{0.23, 0, 0, -0.19, 462, 493}";
},
{
name = corner;
transform = "{-0.23, 0, 0, -0.19, 260, 493}";
},
{
name = corner;
transform = "{0.23, 0, 0, 0.19, 462, 208}";
},
{
name = corner;
transform = "{-0.23, 0, 0, 0.19, 260, 207}";
},
{
name = corner;
transform = "{0.42, 0, 0, 0.66, 386, 238}";
},
{
name = corner;
transform = "{-0.42, 0, 0, 0.66, 336, 238}";
},
{
name = corner;
transform = "{0.42, 0, 0, 0.66, -20, 238}";
},
{
name = corner;
transform = "{-0.42, 0, 0, -0.66, 742, 462}";
},
{
name = corner;
transform = "{0.42, 0, 0, -0.66, 386, 462}";
},
{
name = corner;
transform = "{-0.42, 0, 0, -0.66, 336, 462}";
},
{
name = corner;
transform = "{0.42, 0, 0, -0.66, -20, 462}";
}
);
layerId = "4B7577DA-40A8-4E49-84C6-E8CA9EFA7FA1";
paths = (
{
closed = 1;
nodes = (
"148 700 LINE",
"168 700 LINE",
"168 0 LINE",
"148 0 LINE"
);
},
{
closed = 1;
nodes = (
"554 700 LINE",
"574 700 LINE",
"574 0 LINE",
"554 0 LINE"
);
},
{
closed = 1;
nodes = (
"554 360 LINE",
"554 340 LINE",
"168 340 LINE",
"168 360 LINE"
);
}
);
width = 722;
},
{
components = (
{
name = corner;
transform = "{-0.84, 0, 0, 0.66, 1414, 238}";
},
{
name = corner;
transform = "{0.46, 0, 0, -0.19, 874, 493}";
},
{
name = corner;
transform = "{-0.46, 0, 0, -0.19, 500, 493}";
},
{
name = corner;
transform = "{0.46, 0, 0, 0.19, 874, 207}";
},
{
name = corner;
transform = "{-0.46, 0, 0, 0.19, 500, 207}";
},
{
name = corner;
transform = "{0.84, 0, 0, 0.66, 722, 238}";
},
{
name = corner;
transform = "{-0.84, 0, 0, 0.66, 652, 238}";
},
{
name = corner;
transform = "{0.84, 0, 0, 0.66, -40, 238}";
},
{
name = corner;
transform = "{-0.84, 0, 0, -0.66, 1414, 462}";
},
{
name = corner;
transform = "{0.84, 0, 0, -0.66, 722, 462}";
},
{
name = corner;
transform = "{-0.84, 0, 0, -0.66, 652, 462}";
},
{
name = corner;
transform = "{0.84, 0, 0, -0.66, -40, 462}";
}
);
layerId = m003;
paths = (
{
closed = 1;
nodes = (
"296 700 LINE",
"316 700 LINE",
"316 0 LINE",
"296 0 LINE"
);
},
{
closed = 1;
nodes = (
"1058 700 LINE",
"1078 700 LINE",
"1078 0 LINE",
"1058 0 LINE"
);
},
{
closed = 1;
nodes = (
"1058 360 LINE",
"1058 340 LINE",
"316 340 LINE",
"316 360 LINE"
);
}
);
width = 1374;
}
);
unicode = 0048;
},
{
glyphname = I;
lastChange = "2022-04-07 03:11:06 +0000";
layers = (
{
components = (
{
name = corner;
transform = "{0.42, 0, 0, 0.66, 0, 238}";
},
{
name = corner;
transform = "{-0.42, 0, 0, 0.66, 356, 238}";
},
{
name = corner;
transform = "{0.42, 0, 0, -0.66, 0, 462}";
},
{
name = corner;
transform = "{-0.42, 0, 0, -0.66, 356, 462}";
}
);
layerId = "4B7577DA-40A8-4E49-84C6-E8CA9EFA7FA1";
paths = (
{
closed = 1;
nodes = (
"188 700 LINE",
"188 0 LINE",
"168 0 LINE",
"168 700 LINE"
);
}
);
width = 356;
},
{
components = (
{
name = corner;
transform = "{0.84, 0, 0, 0.66, 0, 238}";
},
{
name = corner;
transform = "{-0.84, 0, 0, 0.66, 692, 238}";
},
{
name = corner;
transform = "{0.84, 0, 0, -0.66, 0, 462}";
},
{
name = corner;
transform = "{-0.84, 0, 0, -0.66, 692, 462}";
}
);
layerId = m003;
paths = (
{
closed = 1;
nodes = (
"356 700 LINE",
"356 0 LINE",
"336 0 LINE",
"336 700 LINE"
);
}
);
width = 692;
}
);
unicode = 0049;
},
{
glyphname = J;
lastChange = "2022-04-14 02:51:31 +0000";
layers = (
{
components = (
{
name = corner;
transform = "{-0.46, 0, 0, -0.7, 254, 510}";
},
{
name = corner;
transform = "{0.44, 0, 0, -0.68, 254, 496}";
},
{
name = corner;
transform = "{0.42, 0, 0, 0.66, 262, 238}";
},
{
name = corner;
transform = "{-0.42, 0, 0, 0.66, 618, 238}";
}
);
layerId = "4B7577DA-40A8-4E49-84C6-E8CA9EFA7FA1";
paths = (
{
closed = 1;
nodes = (
"430 700 LINE",
"450 700 LINE",
"450 20 LINE",
"430 20 LINE"
);
},
{
closed = 1;
nodes = (
"70 20 LINE",
"450 20 LINE",
"450 0 LINE",
"70 0 LINE"
);
}
);
width = 598;
},
{
components = (
{
name = corner;
transform = "{-0.92, 0, 0, -0.78, 508, 566}";
},
{
name = corner;
transform = "{0.88, 0, 0, -0.68, 478, 496}";
},
{
name = corner;
transform = "{0.84, 0, 0, 0.66, 494, 238}";
},
{
name = corner;
transform = "{-0.84, 0, 0, 0.66, 1186, 238}";
}
);
layerId = m003;
paths = (
{
closed = 1;
nodes = (
"830 700 LINE",
"850 700 LINE",
"850 20 LINE",
"830 20 LINE"
);
},
{
closed = 1;
nodes = (
"140 20 LINE",
"850 20 LINE",
"850 0 LINE",
"140 0 LINE"
);
}
);
width = 1146;
}
);
leftMetricsKey = O;
rightMetricsKey = H;
unicode = 004A;
},
{
glyphname = K;
lastChange = "2022-04-14 02:55:32 +0000";
layers = (
{
components = (
{
name = corner;
transform = "{0.42, 0, 0, -0.66, -20, 462}";
},
{
name = corner;
transform = "{-0.42, 0, 0, -0.66, 336, 462}";
},
{
name = corner;
transform = "{0.42, 0, 0, 0.66, -20, 238}";
},
{
name = corner;
transform = "{-0.42, 0, 0, 0.66, 336, 238}";
}
);
layerId = "4B7577DA-40A8-4E49-84C6-E8CA9EFA7FA1";
paths = (
{
closed = 1;
nodes = (
"168 320 LINE",
"558 700 LINE",
"578 700 LINE",
"168 301 LINE"
);
},
{
closed = 1;
nodes = (
"168 301 LINE",
"199 332 LINE",
"182 314 OFFCURVE",
"168 290 OFFCURVE",
"168 262 CURVE"
);
},
{
closed = 1;
nodes = (
"148 700 LINE",
"168 700 LINE",
"168 0 LINE",
"148 0 LINE"
);
},
{
closed = 1;
nodes = (
"168 430 LINE",
"168 380 OFFCURVE",
"216 368 OFFCURVE",
"254 403 CURVE",
"168 320 LINE"
);
},
{
closed = 1;
nodes = (
"532 0 OFFCURVE",
"506 114 OFFCURVE",
"381 254 CURVE",
"608 0 LINE",
"440 0 LINE"
);
},
{
closed = 1;
nodes = (
"311 334 OFFCURVE",
"254 384 OFFCURVE",
"218 350 CURVE",
"259 390 LINE",
"341 300 LINE"
);
},
{
closed = 1;
nodes = (
"259 390 LINE",
"270 401 LINE",
"628 0 LINE",
"608 0 LINE"
);
},
{
closed = 1;
nodes = (
"270 401 LINE",
"337 465 LINE",
"295 425 OFFCURVE",
"285 384 OFFCURVE",
"326 338 CURVE"
);
},
{
closed = 1;
nodes = (
"401 254 LINE",
"526 114 OFFCURVE",
"704 0 OFFCURVE",
"796 0 CURVE",
"628 0 LINE"
);
},
{
closed = 1;
nodes = (
"422 567 OFFCURVE",
"482 700 OFFCURVE",
"390 700 CURVE",
"558 700 LINE",
"288 436 LINE"
);
},
{
closed = 1;
nodes = (
"578 700 LINE",
"746 700 LINE",
"654 700 OFFCURVE",
"438 564 OFFCURVE",
"307 436 CURVE"
);
}
);
width = 776;
},
{
components = (
{
name = corner;
transform = "{0.84, 0, 0, -0.66, -40, 462}";
},
{
name = corner;
transform = "{-0.84, 0, 0, -0.66, 652, 462}";
},
{
name = corner;
transform = "{0.84, 0, 0, 0.66, -40, 238}";
},
{
name = corner;
transform = "{-0.84, 0, 0, 0.66, 652, 238}";
}
);
layerId = m003;
paths = (
{
closed = 1;
nodes = (
"316 320 LINE",
"1136 700 LINE",
"1156 700 LINE",
"316 301 LINE"
);
},
{
closed = 1;
nodes = (
"316 301 LINE",
"401 341 LINE",
"380 331 OFFCURVE",
"316 290 OFFCURVE",
"316 262 CURVE"
);
},
{
closed = 1;
nodes = (
"296 700 LINE",
"316 700 LINE",
"316 0 LINE",
"296 0 LINE"
);
},
{
closed = 1;
nodes = (
"316 430 LINE",
"316 380 OFFCURVE",
"428 372 OFFCURVE",
"496 403 CURVE",
"316 320 LINE"
);
},
{
closed = 1;
nodes = (
"1010 0 OFFCURVE",
"993 111 OFFCURVE",
"747 254 CURVE",
"1186 0 LINE",
"918 0 LINE"
);
},
{
closed = 1;
nodes = (
"602 338 OFFCURVE",
"485 382 OFFCURVE",
"395 338 CURVE",
"506 392 LINE",
"646 312 LINE"
);
},
{
closed = 1;
nodes = (
"506 392 LINE",
"520 398 LINE",
"1206 0 LINE",
"1186 0 LINE"
);
},
{
closed = 1;
nodes = (
"520 398 LINE",
"612 442 LINE",
"563 418 OFFCURVE",
"564 372 OFFCURVE",
"612 344 CURVE"
);
},
{
closed = 1;
nodes = (
"768 254 LINE",
"993 124 OFFCURVE",
"1362 0 OFFCURVE",
"1454 0 CURVE",
"1206 0 LINE"
);
},
{
closed = 1;
nodes = (
"681 489 OFFCURVE",
"1049 700 OFFCURVE",
"868 700 CURVE",
"1136 700 LINE",
"567 436 LINE"
);
},
{
closed = 1;
nodes = (
"1156 700 LINE",
"1424 700 LINE",
"1229 700 OFFCURVE",
"685 476 OFFCURVE",
"600 436 CURVE"
);
}
);
width = 1414;
}
);
leftMetricsKey = H;
rightMetricsKey = H;
unicode = 004B;
},
{
glyphname = L;
lastChange = "2022-04-14 02:52:03 +0000";
layers = (
{
components = (
{
name = corner;
transform = "{-0.42, 0, 0, 0.66, 336, 238}";
},
{
name = corner;
transform = "{-0.42, 0, 0, -0.62, 336, 454}";
},
{
name = corner;
transform = "{0.46, 0, 0, -0.7, 424, 510}";
},
{
name = corner;
transform = "{0.42, 0, 0, 0.66, -20, 238}";
},
{
name = corner;
transform = "{0.42, 0, 0, -0.66, -20, 462}";
}
);
layerId = "4B7577DA-40A8-4E49-84C6-E8CA9EFA7FA1";
paths = (
{
closed = 1;
nodes = (
"168 700 LINE",
"168 0 LINE",
"148 0 LINE",
"148 700 LINE"
);
},
{
closed = 1;
nodes = (
"608 20 LINE",
"608 0 LINE",
"148 0 LINE",
"148 20 LINE"
);
}
);
width = 628;
},
{
components = (
{
name = corner;
transform = "{-0.84, 0, 0, 0.66, 652, 238}";
},
{
name = corner;
transform = "{-0.84, 0, 0, -0.62, 652, 454}";
},
{
name = corner;
transform = "{0.92, 0, 0, -0.78, 798, 566}";
},
{
name = corner;
transform = "{0.84, 0, 0, 0.66, -40, 238}";
},
{
name = corner;
transform = "{0.84, 0, 0, -0.66, -40, 462}";
}
);
layerId = m003;
paths = (
{
closed = 1;
nodes = (
"316 700 LINE",
"316 0 LINE",
"296 0 LINE",
"296 700 LINE"
);
},
{
closed = 1;
nodes = (
"1166 20 LINE",
"1166 0 LINE",
"296 0 LINE",
"296 20 LINE"
);
}
);
width = 1206;
}
);
leftMetricsKey = H;
unicode = 004C;
},
{
glyphname = M;
lastChange = "2022-04-14 03:15:36 +0000";
layers = (
{
components = (
{
name = corner;
transform = "{-0.42, 0, 0, -0.66, 850, 462}";
},
{
name = corner;
transform = "{0.42, 0, 0, -0.66, 494, 462}";
},
{
name = corner;
transform = "{-0.5, 0, 0, 0.74, 882, 182}";
},
{
name = corner;
transform = "{0.5, 0, 0, 0.74, -20, 182}";
},
{
name = corner;
transform = "{-0.42, 0, 0, -0.66, 368, 462}";
},
{
name = corner;
transform = "{0.42, 0, 0, -0.66, 12, 462}";
}
);
layerId = "4B7577DA-40A8-4E49-84C6-E8CA9EFA7FA1";
paths = (
{
closed = 1;
nodes = (
"183 689 LINE",
"200 700 LINE",
"442 215 LINE",
"425 205 LINE"
);
},
{
closed = 1;
nodes = (
"180 700 LINE",
"200 700 LINE",
"200 0 LINE",
"180 0 LINE"
);
},
{
closed = 1;
nodes = (
"662 700 LINE",
"682 700 LINE",
"682 0 LINE",
"662 0 LINE"
);
},
{
closed = 1;
nodes = (
"420 215 LINE",
"662 700 LINE",
"679 689 LINE",
"437 205 LINE"
);
},
{
closed = 1;
nodes = (
"431 236 LINE",
"340 419 LINE",
"397 302 OFFCURVE",
"464 303 OFFCURVE",
"523 421 CURVE"
);
},
{
closed = 1;
nodes = (
"442 215 LINE",
"431 193 LINE",
"420 215 LINE"
);
}
);
width = 862;
},
{
components = (
{
name = corner;
transform = "{-0.84, 0, 0, -0.66, 1550, 462}";
},
{
name = corner;
transform = "{0.84, 0, 0, -0.66, 858, 462}";
},
{
name = corner;
transform = "{-1, 0, 0, 0.74, 1614, 182}";
},
{
name = corner;
transform = "{1, 0, 0, 0.74, -40, 182}";
},
{
name = corner;
transform = "{-0.84, 0, 0, -0.66, 716, 462}";
},
{
name = corner;
transform = "{0.84, 0, 0, -0.66, 24, 462}";
}
);
layerId = m003;
paths = (
{
closed = 1;
nodes = (
"363 689 LINE",
"380 700 LINE",
"798 215 LINE",
"781 205 LINE"
);
},
{
closed = 1;
nodes = (
"360 700 LINE",
"380 700 LINE",
"380 0 LINE",
"360 0 LINE"
);
},
{
closed = 1;
nodes = (
"1194 700 LINE",
"1214 700 LINE",
"1214 0 LINE",
"1194 0 LINE"
);
},
{
closed = 1;
nodes = (
"776 215 LINE",
"1194 700 LINE",
"1211 689 LINE",
"793 205 LINE"
);
},
{
closed = 1;
nodes = (
"787 227 LINE",
"590 456 LINE",
"738 284 OFFCURVE",
"838 286 OFFCURVE",
"984 456 CURVE"
);
},
{
closed = 1;
nodes = (
"802 215 LINE",
"787 198 LINE",
"772 215 LINE"
);
}
);
width = 1574;
}
);
leftMetricsKey = H;
rightMetricsKey = H;
unicode = 004D;
},
{
glyphname = N;
lastChange = "2022-04-14 03:29:33 +0000";
layers = (
{
components = (
{
name = corner;
transform = "{-0.42, 0, 0, -0.66, 368, 462}";
},
{
name = corner;
transform = "{0.42, 0, 0, -0.66, 12, 462}";
},
{
name = corner;
transform = "{-0.42, 0, 0, 0.66, 774, 238}";
},
{
name = corner;
transform = "{0.5, 0, 0, 0.74, -20, 182}";
},
{
name = corner;
transform = "{0.42, 0, 0, 0.66, 418, 238}";
}
);
layerId = "4B7577DA-40A8-4E49-84C6-E8CA9EFA7FA1";
paths = (
{
closed = 1;
nodes = (
"183 689 LINE",
"200 700 LINE",
"603 10 LINE",
"586 0 LINE"
);
},
{
closed = 1;
nodes = (
"180 700 LINE",
"200 700 LINE",
"200 0 LINE",
"180 0 LINE"
);
},
{
closed = 1;
nodes = (
"586 700 LINE",
"606 700 LINE",
"606 0 LINE",
"586 0 LINE"
);
},
{
closed = 1;
nodes = (
"595 8 LINE",
"477 226 LINE",
"542 115 OFFCURVE",
"586 127 OFFCURVE",
"586 259 CURVE"
);
}
);
width = 754;
},
{
components = (
{
name = corner;
transform = "{-0.42, 0, 0, -0.66, 548, 462}";
},
{
name = corner;
transform = "{0.84, 0, 0, -0.66, 24, 462}";
},
{
name = corner;
transform = "{-0.84, 0, 0, 0.66, 1448, 238}";
},
{
name = corner;
transform = "{1, 0, 0, 0.74, -40, 182}";
},
{
name = corner;
transform = "{0.84, 0, 0, 0.66, 756, 238}";
}
);
layerId = m003;
paths = (
{
closed = 1;
nodes = (
"363 689 LINE",
"380 700 LINE",
"1109 10 LINE",
"1092 0 LINE"
);
},
{
closed = 1;
nodes = (
"360 700 LINE",
"380 700 LINE",
"380 0 LINE",
"360 0 LINE"
);
},
{
closed = 1;
nodes = (
"1092 700 LINE",
"1112 700 LINE",
"1112 0 LINE",
"1092 0 LINE"
);
},
{
closed = 1;
nodes = (
"1101 8 LINE",
"881 226 LINE",
"1022 89 OFFCURVE",
"1092 122 OFFCURVE",
"1092 275 CURVE"
);
}
);
width = 1408;
}
);
leftMetricsKey = H;
rightMetricsKey = H;
unicode = 004E;
},
{
glyphname = O;
lastChange = "2022-04-07 02:57:29 +0000";
layers = (
{
components = (
{
name = corner;
transform = "{-0.46, 0, 0, 0.7, 274, 190}";
},
{
name = corner;
transform = "{0.46, 0, 0, 0.7, 366, 190}";
},
{
name = corner;
transform = "{-0.46, 0, 0, -0.7, 274, 510}";
},
{
name = corner;
transform = "{0.46, 0, 0, -0.7, 366, 510}";
}
);
layerId = "4B7577DA-40A8-4E49-84C6-E8CA9EFA7FA1";
paths = (
{
closed = 1;
nodes = (
"70 700 LINE",
"570 700 LINE",
"570 0 LINE",
"70 0 LINE"
);
},
{
closed = 1;
nodes = (
"550 20 LINE",
"550 680 LINE",
"90 680 LINE",
"90 20 LINE"
);
}
);
width = 640;
},
{
components = (
{
name = corner;
transform = "{-0.92, 0, 0, 0.7, 528, 190}";
},
{
name = corner;
transform = "{0.92, 0, 0, 0.7, 732, 190}";
},
{
name = corner;
transform = "{-0.92, 0, 0, -0.7, 528, 510}";
},
{
name = corner;
transform = "{0.92, 0, 0, -0.7, 732, 510}";
}
);
layerId = m003;
paths = (
{
closed = 1;
nodes = (
"140 700 LINE",
"1120 700 LINE",
"1120 0 LINE",
"140 0 LINE"
);
},
{
closed = 1;
nodes = (
"1100 20 LINE",
"1100 680 LINE",
"160 680 LINE",
"160 20 LINE"
);
}
);
width = 1260;
}
);
unicode = 004F;
},
{
glyphname = P;
lastChange = "2022-04-07 03:14:09 +0000";
layers = (
{
components = (
{
name = corner;
transform = "{-0.42, 0, 0, 0.32, 336, 456}";
},
{
name = corner;
transform = "{0.46, 0, 0, 0.36, 424, 428}";
},
{
name = corner;
transform = "{-0.42, 0, 0, -0.66, 336, 462}";
},
{
name = corner;
transform = "{0.46, 0, 0, -0.36, 424, 612}";
},
{
name = corner;
transform = "{-0.42, 0, 0, -0.32, 336, 584}";
},
{
name = corner;
transform = "{0.42, 0, 0, 0.66, -20, 238}";
},
{
name = corner;
transform = "{0.42, 0, 0, -0.66, -20, 462}";
},
{
name = corner;
transform = "{-0.21, 0, 0, 0.16, 252, 228}";
}
);
layerId = "4B7577DA-40A8-4E49-84C6-E8CA9EFA7FA1";
paths = (
{
closed = 1;
nodes = (
"148 700 LINE",
"628 700 LINE",
"628 340 LINE",
"148 340 LINE"
);
},
{
closed = 1;
nodes = (
"608 360 LINE",
"608 680 LINE",
"168 680 LINE",
"168 360 LINE"
);
},
{
closed = 1;
nodes = (
"168 340 LINE",
"168 0 LINE",
"148 0 LINE",
"148 340 LINE"
);
}
);
width = 698;
},
{
components = (
{
name = corner;
transform = "{-0.84, 0, 0, 0.32, 652, 456}";
},
{
name = corner;
transform = "{0.92, 0, 0, 0.36, 788, 428}";
},
{
name = corner;
transform = "{-0.84, 0, 0, -0.66, 652, 462}";
},
{
name = corner;
transform = "{0.92, 0, 0, -0.36, 788, 612}";
},
{
name = corner;
transform = "{-0.84, 0, 0, -0.32, 652, 584}";
},
{
name = corner;
transform = "{0.84, 0, 0, 0.66, -40, 238}";
},
{
name = corner;
transform = "{0.84, 0, 0, -0.66, -40, 462}";
},
{
name = corner;
transform = "{-0.42, 0, 0, 0.16, 484, 228}";
}
);
layerId = m003;
paths = (
{
closed = 1;
nodes = (
"296 700 LINE",
"1176 700 LINE",
"1176 340 LINE",
"296 340 LINE"
);
},
{
closed = 1;
nodes = (
"1156 360 LINE",
"1156 680 LINE",
"316 680 LINE",
"316 360 LINE"
);
},
{
closed = 1;
nodes = (
"316 340 LINE",
"316 0 LINE",
"296 0 LINE",
"296 340 LINE"
);
}
);
width = 1316;
}
);
leftMetricsKey = H;
rightMetricsKey = O;
unicode = 0050;
},
{
glyphname = Q;
lastChange = "2022-04-14 03:08:07 +0000";
layers = (
{
components = (
{
name = corner;
transform = "{-0.46, 0, 0, -0.7, 274, 510}";
},
{
name = corner;
transform = "{-0.46, 0, 0, 0.7, 274, 190}";
},
{
name = corner;
transform = "{0.46, 0, 0, 0.7, 366, 190}";
},
{
name = corner;
transform = "{0.46, 0, 0, -0.7, 366, 510}";
},
{
name = corner;
transform = "{0.19, 0, 0, -0.23, 234, 41}";
},
{
name = corner;
transform = "{-0.19, 0, 0, -0.23, 406, 41}";
},
{
name = corner;
transform = "{0.19, 0, 0, 0.23, 234, 59}";
},
{
name = corner;
transform = "{-0.19, 0, 0, 0.23, 406, 59}";
}
);
layerId = "4B7577DA-40A8-4E49-84C6-E8CA9EFA7FA1";
paths = (
{
closed = 1;
nodes = (
"70 700 LINE",
"570 700 LINE",
"570 0 LINE",
"70 0 LINE"
);
},
{
closed = 1;
nodes = (
"550 20 LINE",
"550 680 LINE",
"90 680 LINE",
"90 20 LINE"
);
},
{
closed = 1;
nodes = (
"330 220 LINE",
"330 -120 LINE",
"310 -120 LINE",
"310 220 LINE"
);
}
);
width = 640;
},
{
components = (
{
name = corner;
transform = "{-0.92, 0, 0, -0.7, 528, 510}";
},
{
name = corner;
transform = "{-0.92, 0, 0, 0.7, 528, 190}";
},
{
name = corner;
transform = "{0.92, 0, 0, 0.7, 752, 190}";
},
{
name = corner;
transform = "{0.92, 0, 0, -0.7, 752, 510}";
},
{
name = corner;
transform = "{0.38, 0, 0, -0.23, 478, 41}";
},
{
name = corner;
transform = "{-0.38, 0, 0, -0.23, 802, 41}";
},
{
name = corner;
transform = "{0.38, 0, 0, 0.23, 478, 59}";
},
{
name = corner;
transform = "{-0.38, 0, 0, 0.23, 802, 59}";
}
);
layerId = m003;
paths = (
{
closed = 1;
nodes = (
"140 700 LINE",
"1140 700 LINE",
"1140 0 LINE",
"140 0 LINE"
);
},
{
closed = 1;
nodes = (
"1120 20 LINE",
"1120 680 LINE",
"160 680 LINE",
"160 20 LINE"
);
},
{
closed = 1;
nodes = (
"650 220 LINE",
"650 -120 LINE",
"630 -120 LINE",
"630 220 LINE"
);
}
);
width = 1280;
}
);
leftMetricsKey = O;
rightMetricsKey = O;
unicode = 0051;
},
{
glyphname = R;
lastChange = "2022-04-14 02:56:09 +0000";
layers = (
{
components = (
{
name = corner;
transform = "{0.42, 0, 0, -0.66, -20, 462}";
},
{
name = corner;
transform = "{-0.42, 0, 0, -0.66, 336, 462}";
},
{
name = corner;
transform = "{-0.21, 0, 0, 0.16, 252, 228}";
},
{
name = corner;
transform = "{0.42, 0, 0, 0.66, -20, 238}";
},
{
name = corner;
transform = "{-0.42, 0, 0, -0.32, 336, 584}";
},
{
name = corner;
transform = "{-0.42, 0, 0, 0.32, 336, 456}";
},
{
name = corner;
transform = "{0.46, 0, 0, -0.36, 424, 612}";
},
{
name = corner;
transform = "{0.46, 0, 0, 0.36, 424, 428}";
}
);
layerId = "4B7577DA-40A8-4E49-84C6-E8CA9EFA7FA1";
paths = (
{
closed = 1;
nodes = (
"148 700 LINE",
"628 700 LINE",
"628 340 LINE",
"148 340 LINE"
);
},
{
closed = 1;
nodes = (
"148 340 LINE",
"168 340 LINE",
"168 0 LINE",
"148 0 LINE"
);
},
{
closed = 1;
nodes = (
"343 311 OFFCURVE",
"296 340 OFFCURVE",
"250 340 CURVE",
"318 340 LINE",
"373 276 LINE"
);
},
{
closed = 1;
nodes = (
"532 0 OFFCURVE",
"504 123 OFFCURVE",
"384 264 CURVE",
"608 0 LINE",
"440 0 LINE"
);
},
{
closed = 1;
nodes = (
"318 340 LINE",
"338 340 LINE",
"628 0 LINE",
"608 0 LINE"
);
},
{
closed = 1;
nodes = (
"338 340 LINE",
"422 340 LINE",
"376 340 OFFCURVE",
"363 311 OFFCURVE",
"392 276 CURVE"
);
},
{
closed = 1;
nodes = (
"403 263 LINE",
"522 123 OFFCURVE",
"704 0 OFFCURVE",
"796 0 CURVE",
"628 0 LINE"
);
},
{
closed = 1;
nodes = (
"608 360 LINE",
"608 680 LINE",
"168 680 LINE",
"168 360 LINE"
);
}
);
width = 776;
},
{
components = (
{
name = corner;
transform = "{0.84, 0, 0, -0.66, -40, 462}";
},
{
name = corner;
transform = "{-0.84, 0, 0, -0.66, 652, 462}";
},
{
name = corner;
transform = "{-0.42, 0, 0, 0.16, 484, 228}";
},
{
name = corner;
transform = "{0.84, 0, 0, 0.66, -40, 238}";
},
{
name = corner;
transform = "{-0.84, 0, 0, -0.32, 652, 584}";
},
{
name = corner;
transform = "{-0.84, 0, 0, 0.32, 652, 456}";
},
{
name = corner;
transform = "{0.92, 0, 0, -0.36, 778, 612}";
},
{
name = corner;
transform = "{0.92, 0, 0, 0.36, 778, 428}";
}
);
layerId = m003;
paths = (
{
closed = 1;
nodes = (
"296 700 LINE",
"1166 700 LINE",
"1166 340 LINE",
"296 340 LINE"
);
},
{
closed = 1;
nodes = (
"296 340 LINE",
"316 340 LINE",
"316 0 LINE",
"296 0 LINE"
);
},
{
closed = 1;
nodes = (
"648 289 OFFCURVE",
"523 340 OFFCURVE",
"477 340 CURVE",
"566 340 LINE",
"688 267 LINE"
);
},
{
closed = 1;
nodes = (
"902 0 OFFCURVE",
"966 98 OFFCURVE",
"694 263 CURVE",
"1126 0 LINE",
"810 0 LINE"
);
},
{
closed = 1;
nodes = (
"566 340 LINE",
"586 340 LINE",
"1146 0 LINE",
"1126 0 LINE"
);
},
{
closed = 1;
nodes = (
"586 340 LINE",
"1000 340 LINE",
"954 340 OFFCURVE",
"636 306 OFFCURVE",
"707 267 CURVE"
);
},
{
closed = 1;
nodes = (
"713 263 LINE",
"982 100 OFFCURVE",
"1350 0 OFFCURVE",
"1442 0 CURVE",
"1146 0 LINE"
);
},
{
closed = 1;
nodes = (
"1146 360 LINE",
"1146 680 LINE",
"316 680 LINE",
"316 360 LINE"
);
}
);
width = 1402;
}
);
leftMetricsKey = H;
rightMetricsKey = H;
unicode = 0052;
},
{
glyphname = S;
lastChange = "2022-04-07 02:59:22 +0000";
layers = (
{
components = (
{
name = corner;
transform = "{-0.5, 0, 0, 0.38, 290, 414}";
},
{
name = corner;
transform = "{-0.5, 0, 0, -0.66, 270, 482}";
},
{
name = corner;
transform = "{0.5, 0, 0, 0.58, 350, 274}";
},
{
name = corner;
transform = "{0.5, 0, 0, -0.38, 330, 286}";
},
{
name = corner;
transform = "{0.3, 0, 0, 0.38, 410, 84}";
},
{
name = corner;
transform = "{-0.3, 0, 0, -0.38, 210, 636}";
}
);
layerId = "4B7577DA-40A8-4E49-84C6-E8CA9EFA7FA1";
paths = (
{
closed = 1;
nodes = (
"550 700 LINE",
"550 680 LINE",
"70 680 LINE",
"70 700 LINE"
);
},
{
closed = 1;
nodes = (
"90 700 LINE",
"90 350 LINE",
"70 350 LINE",
"70 700 LINE"
);
},
{
closed = 1;
nodes = (
"550 20 LINE",
"550 0 LINE",
"70 0 LINE",
"70 20 LINE"
);
},
{
closed = 1;
nodes = (
"550 370 LINE",
"550 350 LINE",
"90 350 LINE",
"90 370 LINE"
);
},
{
closed = 1;
nodes = (
"550 370 LINE",
"550 0 LINE",
"530 0 LINE",
"530 370 LINE"
);
}
);
width = 620;
},
{
components = (
{
name = corner;
transform = "{-1, 0, 0, 0.38, 560, 414}";
},
{
name = corner;
transform = "{-1, 0, 0, -0.66, 540, 482}";
},
{
name = corner;
transform = "{1, 0, 0, 0.58, 700, 274}";
},
{
name = corner;
transform = "{1, 0, 0, -0.38, 680, 286}";
},
{
name = corner;
transform = "{0.6, 0, 0, 0.38, 840, 84}";
},
{
name = corner;
transform = "{-0.6, 0, 0, -0.38, 400, 636}";
}
);
layerId = m003;
paths = (
{
closed = 1;
nodes = (
"1100 700 LINE",
"1100 680 LINE",
"140 680 LINE",
"140 700 LINE"
);
},
{
closed = 1;
nodes = (
"160 700 LINE",
"160 350 LINE",
"140 350 LINE",
"140 700 LINE"
);
},
{
closed = 1;
nodes = (
"1100 20 LINE",
"1100 0 LINE",
"140 0 LINE",
"140 20 LINE"
);
},
{
closed = 1;
nodes = (
"1100 370 LINE",
"1100 350 LINE",
"160 350 LINE",
"160 370 LINE"
);
},
{
closed = 1;
nodes = (
"1100 370 LINE",
"1100 0 LINE",
"1080 0 LINE",
"1080 370 LINE"
);
}
);
width = 1240;
}
);
leftMetricsKey = O;
rightMetricsKey = O;
unicode = 0053;
},
{
glyphname = T;
lastChange = "2022-04-14 03:49:20 +0000";
layers = (
{
components = (
{
name = corner;
transform = "{0.42, 0, 0, -0.66, 152, 462}";
},
{
name = corner;
transform = "{-0.42, 0, 0, -0.66, 508, 462}";
},
{
name = corner;
transform = "{0, 0.23, 0.15, 0, 215, 588}";
},
{
name = corner;
transform = "{-0.52, 0, 0, 0.7, 248, 190}";
},
{
name = corner;
transform = "{0, 0.23, -0.15, 0, 445, 588}";
},
{
name = corner;
transform = "{0.52, 0, 0, 0.7, 412, 190}";
}
);
layerId = "4B7577DA-40A8-4E49-84C6-E8CA9EFA7FA1";
paths = (
{
closed = 1;
nodes = (
"320 700 LINE",
"340 700 LINE",
"340 0 LINE",
"320 0 LINE"
);
},
{
closed = 1;
nodes = (
"40 700 LINE",
"620 700 LINE",
"620 680 LINE",
"40 680 LINE"
);
}
);
width = 660;
},
{
components = (
{
name = corner;
transform = "{0.84, 0, 0, -0.66, 344, 462}";
},
{
name = corner;
transform = "{-0.84, 0, 0, -0.66, 1036, 462}";
},
{
name = corner;
transform = "{0, 0.23, 0.3, 0, 470, 588}";
},
{
name = corner;
transform = "{-0.94, 0, 0, 0.7, 566, 190}";
},
{
name = corner;
transform = "{0, 0.23, -0.3, 0, 910, 588}";
},
{
name = corner;
transform = "{0.94, 0, 0, 0.7, 814, 190}";
}
);
layerId = m003;
paths = (
{
closed = 1;
nodes = (
"680 700 LINE",
"700 700 LINE",
"700 0 LINE",
"680 0 LINE"
);
},
{
closed = 1;
nodes = (
"190 700 LINE",
"1190 700 LINE",
"1190 680 LINE",
"190 680 LINE"
);
}
);
width = 1380;
}
);
unicode = 0054;
},
{
glyphname = U;
lastChange = "2022-04-07 03:02:27 +0000";
layers = (
{
components = (
{
name = corner;
transform = "{-0.46, 0, 0, -0.7, 274, 510}";
},
{
name = corner;
transform = "{0.46, 0, 0, -0.7, 386, 510}";
},
{
name = corner;
transform = "{-0.5, 0, 0, 0.74, 290, 182}";
},
{
name = corner;
transform = "{0.5, 0, 0, 0.74, 370, 182}";
}
);
layerId = "4B7577DA-40A8-4E49-84C6-E8CA9EFA7FA1";
paths = (
{
closed = 1;
nodes = (
"90 700 LINE",
"90 0 LINE",
"70 0 LINE",
"70 700 LINE"
);
},
{
closed = 1;
nodes = (
"570 20 LINE",
"570 0 LINE",
"70 0 LINE",
"70 20 LINE"
);
},
{
closed = 1;
nodes = (
"590 700 LINE",
"590 0 LINE",
"570 0 LINE",
"570 700 LINE"
);
}
);
width = 660;
},
{
components = (
{
name = corner;
transform = "{-0.92, 0, 0, -0.7, 528, 510}";
},
{
name = corner;
transform = "{0.92, 0, 0, -0.7, 792, 510}";
},
{
name = corner;
transform = "{-1, 0, 0, 0.74, 560, 182}";
},
{
name = corner;
transform = "{1, 0, 0, 0.74, 760, 182}";
}
);
layerId = m003;
paths = (
{
closed = 1;
nodes = (
"160 700 LINE",
"160 0 LINE",
"140 0 LINE",
"140 700 LINE"
);
},
{
closed = 1;
nodes = (
"1160 20 LINE",
"1160 0 LINE",
"140 0 LINE",
"140 20 LINE"
);
},
{
closed = 1;
nodes = (
"1180 700 LINE",
"1180 0 LINE",
"1160 0 LINE",
"1160 700 LINE"
);
}
);
width = 1320;
}
);
leftMetricsKey = O;
rightMetricsKey = O;
unicode = 0055;
},
{
glyphname = V;
lastChange = "2022-04-14 03:23:47 +0000";
layers = (
{
layerId = "4B7577DA-40A8-4E49-84C6-E8CA9EFA7FA1";
paths = (
{
closed = 1;
nodes = (
"617 700 LINE",
"597 700 LINE",
"355 15 LINE",
"374 5 LINE"
);
},
{
closed = 1;
nodes = (
"450 283 LINE",
"394 126 OFFCURVE",
"338 126 OFFCURVE",
"282 283 CURVE",
"366 46 LINE"
);
},
{
closed = 1;
nodes = (
"377 15 LINE",
"135 700 LINE",
"115 700 LINE",
"358 5 LINE"
);
},
{
closed = 1;
nodes = (
"115 700 LINE",
"-20 700 LINE",
"72 700 OFFCURVE",
"162 567 OFFCURVE",
"208 436 CURVE"
);
},
{
closed = 1;
nodes = (
"181 567 OFFCURVE",
"211 700 OFFCURVE",
"303 700 CURVE",
"135 700 LINE",
"228 436 LINE"
);
},
{
closed = 1;
nodes = (
"597 700 LINE",
"429 700 LINE",
"521 700 OFFCURVE",
"551 567 OFFCURVE",
"504 436 CURVE"
);
},
{
closed = 1;
nodes = (
"570 567 OFFCURVE",
"660 700 OFFCURVE",
"752 700 CURVE",
"617 700 LINE",
"524 436 LINE"
);
},
{
closed = 1;
nodes = (
"366 -18 LINE",
"378 17 LINE",
"354 17 LINE"
);
}
);
width = 732;
},
{
layerId = m003;
paths = (
{
closed = 1;
nodes = (
"1117 700 LINE",
"1097 700 LINE",
"654 15 LINE",
"672 5 LINE"
);
},
{
closed = 1;
nodes = (
"828 283 LINE",
"724 121 OFFCURVE",
"611 119 OFFCURVE",
"504 283 CURVE",
"666 33 LINE"
);
},
{
closed = 1;
nodes = (
"678 15 LINE",
"235 700 LINE",
"215 700 LINE",
"660 5 LINE"
);
},
{
closed = 1;
nodes = (
"215 700 LINE",
"-40 700 LINE",
"52 700 OFFCURVE",
"261 628 OFFCURVE",
"385 436 CURVE"
);
},
{
closed = 1;
nodes = (
"282 628 OFFCURVE",
"491 700 OFFCURVE",
"583 700 CURVE",
"235 700 LINE",
"406 435 LINE"
);
},
{
closed = 1;
nodes = (
"1097 700 LINE",
"749 700 LINE",
"841 700 OFFCURVE",
"1051 629 OFFCURVE",
"927 436 CURVE"
);
},
{
closed = 1;
nodes = (
"1071 628 OFFCURVE",
"1290 700 OFFCURVE",
"1382 700 CURVE",
"1117 700 LINE",
"947 436 LINE"
);
},
{
closed = 1;
nodes = (
"666 -4 LINE",
"680 17 LINE",
"652 17 LINE"
);
}
);
width = 1342;
}
);
leftMetricsKey = H;
rightMetricsKey = H;
unicode = 0056;
},
{
glyphname = W;
lastChange = "2022-04-14 07:26:39 +0000";
layers = (
{
layerId = "4B7577DA-40A8-4E49-84C6-E8CA9EFA7FA1";
paths = (
{
closed = 1;
nodes = (
"677 11 LINE",
"466 495 LINE",
"448 485 LINE",
"660 0 LINE"
);
},
{
closed = 1;
nodes = (
"258 0 LINE",
"168 700 LINE",
"148 700 LINE",
"238 0 LINE"
);
},
{
closed = 1;
nodes = (
"470 485 LINE",
"452 495 LINE",
"241 11 LINE",
"258 0 LINE"
);
},
{
closed = 1;
nodes = (
"148 700 LINE",
"-20 700 LINE",
"72 700 OFFCURVE",
"163 580 OFFCURVE",
"182 436 CURVE"
);
},
{
closed = 1;
nodes = (
"184 580 OFFCURVE",
"244 700 OFFCURVE",
"336 700 CURVE",
"168 700 LINE",
"202 436 LINE"
);
},
{
closed = 1;
nodes = (
"680 0 LINE",
"770 700 LINE",
"750 700 LINE",
"660 0 LINE"
);
},
{
closed = 1;
nodes = (
"755 580 OFFCURVE",
"846 700 OFFCURVE",
"938 700 CURVE",
"770 700 LINE",
"736 436 LINE"
);
},
{
closed = 1;
nodes = (
"750 700 LINE",
"582 700 LINE",
"674 700 OFFCURVE",
"734 580 OFFCURVE",
"716 436 CURVE"
);
},
{
closed = 1;
nodes = (
"430 396 OFFCURVE",
"487 396 OFFCURVE",
"539 279 CURVE",
"459 461 LINE",
"379 279 LINE"
);
},
{
closed = 1;
nodes = (
"677 131 OFFCURVE",
"628 124 OFFCURVE",
"577 241 CURVE",
"670 8 LINE",
"694 263 LINE"
);
},
{
closed = 1;
nodes = (
"248 8 LINE",
"342 241 LINE",
"293 130 OFFCURVE",
"240 135 OFFCURVE",
"224 263 CURVE"
);
},
{
closed = 1;
nodes = (
"472 481 LINE",
"459 512 LINE",
"446 481 LINE"
);
}
);
width = 918;
},
{
layerId = m003;
paths = (
{
closed = 1;
nodes = (
"1009 11 LINE",
"706 495 LINE",
"689 485 LINE",
"992 0 LINE"
);
},
{
closed = 1;
nodes = (
"408 0 LINE",
"248 700 LINE",
"228 700 LINE",
"388 0 LINE"
);
},
{
closed = 1;
nodes = (
"711 485 LINE",
"694 495 LINE",
"391 11 LINE",
"408 0 LINE"
);
},
{
closed = 1;
nodes = (
"228 700 LINE",
"-40 700 LINE",
"52 700 OFFCURVE",
"245 627 OFFCURVE",
"289 436 CURVE"
);
},
{
closed = 1;
nodes = (
"261 644 OFFCURVE",
"474 700 OFFCURVE",
"566 700 CURVE",
"248 700 LINE",
"308 436 LINE"
);
},
{
closed = 1;
nodes = (
"1012 0 LINE",
"1172 700 LINE",
"1152 700 LINE",
"992 0 LINE"
);
},
{
closed = 1;
nodes = (
"1155 625 OFFCURVE",
"1348 700 OFFCURVE",
"1440 700 CURVE",
"1172 700 LINE",
"1111 436 LINE"
);
},
{
closed = 1;
nodes = (
"1152 700 LINE",
"834 700 LINE",
"926 700 OFFCURVE",
"1140 647 OFFCURVE",
"1092 436 CURVE"
);
},
{
closed = 1;
nodes = (
"670 422 OFFCURVE",
"730 422 OFFCURVE",
"818 279 CURVE",
"700 472 LINE",
"582 279 LINE"
);
},
{
closed = 1;
nodes = (
"1027 135 OFFCURVE",
"934 123 OFFCURVE",
"864 241 CURVE",
"1002 8 LINE",
"1054 268 LINE"
);
},
{
closed = 1;
nodes = (
"398 8 LINE",
"536 241 LINE",
"457 108 OFFCURVE",
"375 130 OFFCURVE",
"347 263 CURVE"
);
},
{
closed = 1;
nodes = (
"713 486 LINE",
"700 504 LINE",
"687 486 LINE"
);
}
);
width = 1400;
}
);
leftMetricsKey = H;
rightMetricsKey = H;
unicode = 0057;
},
{
glyphname = X;
lastChange = "2022-04-07 05:46:03 +0000";
layers = (
{
layerId = "4B7577DA-40A8-4E49-84C6-E8CA9EFA7FA1";
paths = (
{
closed = 1;
nodes = (
"125 700 LINE",
"370 360 LINE",
"387 370 LINE",
"145 700 LINE"
);
},
{
closed = 1;
nodes = (
"627 700 LINE",
"436 436 LINE",
"527 562 OFFCURVE",
"650 700 OFFCURVE",
"742 700 CURVE"
);
},
{
closed = 1;
nodes = (
"429 700 LINE",
"521 700 OFFCURVE",
"506 562 OFFCURVE",
"414 436 CURVE",
"607 700 LINE"
);
},
{
closed = 1;
nodes = (
"607 700 LINE",
"365 370 LINE",
"382 360 LINE",
"627 700 LINE"
);
},
{
closed = 1;
nodes = (
"385 365 LINE",
"424 306 LINE",
"390 358 OFFCURVE",
"390 371 OFFCURVE",
"429 426 CURVE"
);
},
{
closed = 1;
nodes = (
"387 360 LINE",
"370 370 LINE",
"125 0 LINE",
"145 0 LINE"
);
},
{
closed = 1;
nodes = (
"680 0 OFFCURVE",
"537 136 OFFCURVE",
"452 264 CURVE",
"627 0 LINE",
"772 0 LINE"
);
},
{
closed = 1;
nodes = (
"430 264 LINE",
"515 136 OFFCURVE",
"541 0 OFFCURVE",
"449 0 CURVE",
"607 0 LINE"
);
},
{
closed = 1;
nodes = (
"382 370 LINE",
"365 360 LINE",
"607 0 LINE",
"627 0 LINE"
);
},
{
closed = 1;
nodes = (
"125 0 LINE",
"300 264 LINE",
"215 136 OFFCURVE",
"72 0 OFFCURVE",
"-20 0 CURVE"
);
},
{
closed = 1;
nodes = (
"303 0 LINE",
"211 0 OFFCURVE",
"237 136 OFFCURVE",
"322 264 CURVE",
"145 0 LINE"
);
},
{
closed = 1;
nodes = (
"102 700 OFFCURVE",
"225 562 OFFCURVE",
"316 436 CURVE",
"125 700 LINE",
"10 700 LINE"
);
},
{
closed = 1;
nodes = (
"338 436 LINE",
"246 562 OFFCURVE",
"231 700 OFFCURVE",
"323 700 CURVE",
"145 700 LINE"
);
},
{
closed = 1;
nodes = (
"362 371 OFFCURVE",
"362 358 OFFCURVE",
"328 306 CURVE",
"367 365 LINE",
"323 426 LINE"
);
},
{
closed = 1;
nodes = (
"376 374 LINE",
"405 424 LINE",
"384 396 OFFCURVE",
"369 395 OFFCURVE",
"347 424 CURVE"
);
},
{
closed = 1;
nodes = (
"362 328 OFFCURVE",
"386 328 OFFCURVE",
"405 302 CURVE",
"376 354 LINE",
"347 302 LINE"
);
}
);
width = 752;
},
{
layerId = m003;
paths = (
{
closed = 1;
nodes = (
"205 700 LINE",
"651 360 LINE",
"668 370 LINE",
"225 700 LINE"
);
},
{
closed = 1;
nodes = (
"1109 700 LINE",
"762 436 LINE",
"1025 636 OFFCURVE",
"1232 700 OFFCURVE",
"1324 700 CURVE"
);
},
{
closed = 1;
nodes = (
"761 700 LINE",
"853 700 OFFCURVE",
"963 606 OFFCURVE",
"736 436 CURVE",
"1089 700 LINE"
);
},
{
closed = 1;
nodes = (
"1089 700 LINE",
"646 370 LINE",
"663 360 LINE",
"1109 700 LINE"
);
},
{
closed = 1;
nodes = (
"666 365 LINE",
"739 306 LINE",
"696 342 OFFCURVE",
"697 384 OFFCURVE",
"749 426 CURVE"
);
},
{
closed = 1;
nodes = (
"668 360 LINE",
"651 370 LINE",
"205 0 LINE",
"225 0 LINE"
);
},
{
closed = 1;
nodes = (
"1262 0 OFFCURVE",
"1036 60 OFFCURVE",
"791 264 CURVE",
"1109 0 LINE",
"1354 0 LINE"
);
},
{
closed = 1;
nodes = (
"765 264 LINE",
"957 108 OFFCURVE",
"873 0 OFFCURVE",
"781 0 CURVE",
"1089 0 LINE"
);
},
{
closed = 1;
nodes = (
"663 370 LINE",
"646 360 LINE",
"1089 0 LINE",
"1109 0 LINE"
);
},
{
closed = 1;
nodes = (
"205 0 LINE",
"524 264 LINE",
"277 60 OFFCURVE",
"52 0 OFFCURVE",
"-40 0 CURVE"
);
},
{
closed = 1;
nodes = (
"533 0 LINE",
"441 0 OFFCURVE",
"358 108 OFFCURVE",
"549 264 CURVE",
"225 0 LINE"
);
},
{
closed = 1;
nodes = (
"82 700 OFFCURVE",
"288 636 OFFCURVE",
"552 436 CURVE",
"205 700 LINE",
"-10 700 LINE"
);
},
{
closed = 1;
nodes = (
"578 436 LINE",
"353 606 OFFCURVE",
"461 700 OFFCURVE",
"553 700 CURVE",
"225 700 LINE"
);
},
{
closed = 1;
nodes = (
"619 384 OFFCURVE",
"619 342 OFFCURVE",
"574 306 CURVE",
"648 365 LINE",
"566 426 LINE"
);
},
{
closed = 1;
nodes = (
"657 374 LINE",
"719 424 LINE",
"681 393 OFFCURVE",
"636 392 OFFCURVE",
"597 424 CURVE"
);
},
{
closed = 1;
nodes = (
"625 328 OFFCURVE",
"688 329 OFFCURVE",
"720 302 CURVE",
"657 354 LINE",
"596 302 LINE"
);
}
);
width = 1314;
}
);
leftMetricsKey = H;
rightMetricsKey = H;
unicode = 0058;
},
{
glyphname = Y;
lastChange = "2022-04-14 03:48:29 +0000";
layers = (
{
components = (
{
name = corner;
transform = "{0.42, 0, 0, -0.66, 188, 462}";
},
{
name = corner;
transform = "{-0.42, 0, 0, -0.66, 544, 462}";
}
);
layerId = "4B7577DA-40A8-4E49-84C6-E8CA9EFA7FA1";
paths = (
{
closed = 1;
nodes = (
"355 340 LINE",
"597 700 LINE",
"617 700 LINE",
"372 330 LINE"
);
},
{
closed = 1;
nodes = (
"356 336 LINE",
"376 336 LINE",
"376 0 LINE",
"356 0 LINE"
);
},
{
closed = 1;
nodes = (
"353 336 OFFCURVE",
"353 336 OFFCURVE",
"317 396 CURVE",
"356 336 LINE",
"356 276 LINE"
);
},
{
closed = 1;
nodes = (
"205 564 OFFCURVE",
"72 700 OFFCURVE",
"-20 700 CURVE",
"115 700 LINE",
"290 436 LINE"
);
},
{
closed = 1;
nodes = (
"376 336 LINE",
"415 396 LINE",
"379 336 OFFCURVE",
"379 336 OFFCURVE",
"376 276 CURVE"
);
},
{
closed = 1;
nodes = (
"306 433 LINE",
"365 387 OFFCURVE",
"365 387 OFFCURVE",
"426 433 CURVE",
"366 343 LINE"
);
},
{
closed = 1;
nodes = (
"115 700 LINE",
"135 700 LINE",
"377 340 LINE",
"360 330 LINE"
);
},
{
closed = 1;
nodes = (
"135 700 LINE",
"303 700 LINE",
"211 700 OFFCURVE",
"227 564 OFFCURVE",
"312 436 CURVE"
);
},
{
closed = 1;
nodes = (
"505 564 OFFCURVE",
"521 700 OFFCURVE",
"429 700 CURVE",
"597 700 LINE",
"420 436 LINE"
);
},
{
closed = 1;
nodes = (
"617 700 LINE",
"752 700 LINE",
"660 700 OFFCURVE",
"527 564 OFFCURVE",
"442 436 CURVE"
);
}
);
width = 732;
},
{
components = (
{
name = corner;
transform = "{0.84, 0, 0, -0.66, 281, 462}";
},
{
name = corner;
transform = "{-0.84, 0, 0, -0.66, 973, 462}";
}
);
layerId = m003;
paths = (
{
closed = 1;
nodes = (
"616 342 LINE",
"1059 700 LINE",
"1079 700 LINE",
"633 332 LINE"
);
},
{
closed = 1;
nodes = (
"617 336 LINE",
"637 336 LINE",
"637 0 LINE",
"617 0 LINE"
);
},
{
closed = 1;
nodes = (
"617 331 OFFCURVE",
"607 344 OFFCURVE",
"578 368 CURVE",
"617 336 LINE",
"617 276 LINE"
);
},
{
closed = 1;
nodes = (
"253 636 OFFCURVE",
"52 700 OFFCURVE",
"-40 700 CURVE",
"175 700 LINE",
"495 436 LINE"
);
},
{
closed = 1;
nodes = (
"637 336 LINE",
"676 368 LINE",
"647 344 OFFCURVE",
"637 331 OFFCURVE",
"637 276 CURVE"
);
},
{
closed = 1;
nodes = (
"536 424 LINE",
"575 392 OFFCURVE",
"680 393 OFFCURVE",
"718 424 CURVE",
"627 351 LINE"
);
},
{
closed = 1;
nodes = (
"175 700 LINE",
"195 700 LINE",
"638 342 LINE",
"621 332 LINE"
);
},
{
closed = 1;
nodes = (
"195 700 LINE",
"523 700 LINE",
"431 700 OFFCURVE",
"311 606 OFFCURVE",
"521 436 CURVE"
);
},
{
closed = 1;
nodes = (
"943 606 OFFCURVE",
"823 700 OFFCURVE",
"731 700 CURVE",
"1059 700 LINE",
"733 436 LINE"
);
},
{
closed = 1;
nodes = (
"1079 700 LINE",
"1294 700 LINE",
"1202 700 OFFCURVE",
"1001 636 OFFCURVE",
"759 436 CURVE"
);
}
);
width = 1254;
}
);
leftMetricsKey = H;
rightMetricsKey = H;
unicode = 0059;
},
{
glyphname = Z;
lastChange = "2022-04-07 04:23:35 +0000";
layers = (
{
layerId = "4B7577DA-40A8-4E49-84C6-E8CA9EFA7FA1";
paths = (
{
closed = 1;
nodes = (
"591 683 LINE",
"580 700 LINE",
"40 17 LINE",
"50 0 LINE"
);
},
{
closed = 1;
nodes = (
"600 0 LINE",
"600 20 LINE",
"50 20 LINE",
"50 0 LINE"
);
},
{
closed = 1;
nodes = (
"600 20 LINE",
"600 288 LINE",
"600 122 OFFCURVE",
"513 20 OFFCURVE",
"316 20 CURVE"
);
},
{
closed = 1;
nodes = (
"90 583 OFFCURVE",
"185 680 OFFCURVE",
"344 680 CURVE",
"90 680 LINE",
"90 452 LINE"
);
},
{
closed = 1;
nodes = (
"580 680 LINE",
"580 700 LINE",
"90 700 LINE",
"90 680 LINE"
);
},
{
closed = 1;
nodes = (
"154 20 OFFCURVE",
"124 100 OFFCURVE",
"233 236 CURVE",
"64 20 LINE",
"329 20 LINE"
);
},
{
closed = 1;
nodes = (
"485 680 OFFCURVE",
"493 593 OFFCURVE",
"393 464 CURVE",
"565 680 LINE",
"329 680 LINE"
);
}
);
width = 670;
},
{
layerId = m003;
paths = (
{
closed = 1;
nodes = (
"1141 683 LINE",
"1130 700 LINE",
"40 17 LINE",
"50 0 LINE"
);
},
{
closed = 1;
nodes = (
"1150 0 LINE",
"1150 20 LINE",
"50 20 LINE",
"50 0 LINE"
);
},
{
closed = 1;
nodes = (
"1150 20 LINE",
"1150 288 LINE",
"1150 97 OFFCURVE",
"945 20 OFFCURVE",
"611 20 CURVE"
);
},
{
closed = 1;
nodes = (
"90 631 OFFCURVE",
"427 680 OFFCURVE",
"619 680 CURVE",
"90 680 LINE",
"90 452 LINE"
);
},
{
closed = 1;
nodes = (
"1130 680 LINE",
"1130 700 LINE",
"90 700 LINE",
"90 680 LINE"
);
},
{
closed = 1;
nodes = (
"278 20 OFFCURVE",
"261 132 OFFCURVE",
"489 276 CURVE",
"64 20 LINE",
"574 20 LINE"
);
},
{
closed = 1;
nodes = (
"942 680 OFFCURVE",
"962 586 OFFCURVE",
"696 426 CURVE",
"1115 680 LINE",
"604 680 LINE"
);
}
);
width = 1290;
}
);
rightMetricsKey = O;
unicode = 005A;
},
{
glyphname = period;
lastChange = "2022-04-07 04:18:37 +0000";
layers = (
{
layerId = "4B7577DA-40A8-4E49-84C6-E8CA9EFA7FA1";
paths = (
{
closed = 1;
nodes = (
"132 72 LINE",
"60 144 LINE",
"100 104 OFFCURVE",
"164 104 OFFCURVE",
"204 144 CURVE"
);
},
{
closed = 1;
nodes = (
"100 40 OFFCURVE",
"100 104 OFFCURVE",
"60 144 CURVE",
"132 72 LINE",
"60 0 LINE"
);
},
{
closed = 1;
nodes = (
"164 40 OFFCURVE",
"100 40 OFFCURVE",
"60 0 CURVE",
"132 72 LINE",
"204 0 LINE"
);
},
{
closed = 1;
nodes = (
"164 104 OFFCURVE",
"164 40 OFFCURVE",
"204 0 CURVE",
"132 72 LINE",
"204 144 LINE"
);
}
);
width = 264;
},
{
layerId = m003;
paths = (
{
closed = 1;
nodes = (
"192 72 LINE",
"120 144 LINE",
"160 104 OFFCURVE",
"224 104 OFFCURVE",
"264 144 CURVE"
);
},
{
closed = 1;
nodes = (
"160 40 OFFCURVE",
"160 104 OFFCURVE",
"120 144 CURVE",
"192 72 LINE",
"120 0 LINE"
);
},
{
closed = 1;
nodes = (
"224 40 OFFCURVE",
"160 40 OFFCURVE",
"120 0 CURVE",
"192 72 LINE",
"264 0 LINE"
);
},
{
closed = 1;
nodes = (
"224 104 OFFCURVE",
"224 40 OFFCURVE",
"264 0 CURVE",
"192 72 LINE",
"264 144 LINE"
);
}
);
width = 384;
}
);
unicode = 002E;
},
{
glyphname = comma;
lastChange = "2022-04-14 03:33:12 +0000";
layers = (
{
layerId = "4B7577DA-40A8-4E49-84C6-E8CA9EFA7FA1";
paths = (
{
closed = 1;
nodes = (
"159 23 LINE",
"145 164 LINE",
"153 86 OFFCURVE",
"211 58 OFFCURVE",
"276 103 CURVE"
);
},
{
closed = 1;
nodes = (
"125 -21 OFFCURVE",
"153 86 OFFCURVE",
"145 164 CURVE",
"159 23 LINE",
"60 -66 LINE"
);
},
{
closed = 1;
nodes = (
"149 -54 OFFCURVE",
"106 -34 OFFCURVE",
"60 -66 CURVE",
"159 23 LINE",
"155 -110 LINE"
);
},
{
closed = 1;
nodes = (
"211 58 OFFCURVE",
"147 -31 OFFCURVE",
"155 -110 CURVE",
"159 23 LINE",
"276 103 LINE"
);
}
);
width = 336;
},
{
layerId = m003;
paths = (
{
closed = 1;
nodes = (
"219 23 LINE",
"205 164 LINE",
"213 86 OFFCURVE",
"271 58 OFFCURVE",
"336 103 CURVE"
);
},
{
closed = 1;
nodes = (
"185 -21 OFFCURVE",
"213 86 OFFCURVE",
"205 164 CURVE",
"219 23 LINE",
"120 -66 LINE"
);
},
{
closed = 1;
nodes = (
"209 -54 OFFCURVE",
"166 -34 OFFCURVE",
"120 -66 CURVE",
"219 23 LINE",
"215 -110 LINE"
);
},
{
closed = 1;
nodes = (
"271 58 OFFCURVE",
"207 -31 OFFCURVE",
"215 -110 CURVE",
"219 23 LINE",
"336 103 LINE"
);
}
);
width = 456;
}
);
leftMetricsKey = period;
rightMetricsKey = period;
unicode = 002C;
},
{
glyphname = hyphen;
lastChange = "2022-04-14 02:57:19 +0000";
layers = (
{
components = (
{
name = corner;
transform = "{0.3, 0, 0, 0.26, 320, 168}";
},
{
name = corner;
transform = "{-0.3, 0, 0, -0.26, 160, 552}";
},
{
name = corner;
transform = "{-0.3, 0, 0, 0.26, 160, 168}";
},
{
name = corner;
transform = "{0.3, 0, 0, -0.26, 320, 552}";
}
);
layerId = "4B7577DA-40A8-4E49-84C6-E8CA9EFA7FA1";
paths = (
{
closed = 1;
nodes = (
"440 370 LINE",
"440 350 LINE",
"40 350 LINE",
"40 370 LINE"
);
}
);
width = 480;
},
{
components = (
{
name = corner;
transform = "{0.6, 0, 0, 0.26, 640, 168}";
},
{
name = corner;
transform = "{-0.6, 0, 0, -0.26, 320, 552}";
},
{
name = corner;
transform = "{-0.6, 0, 0, 0.26, 320, 168}";
},
{
name = corner;
transform = "{0.6, 0, 0, -0.26, 640, 552}";
}
);
layerId = m003;
paths = (
{
closed = 1;
nodes = (
"880 370 LINE",
"880 350 LINE",
"80 350 LINE",
"80 370 LINE"
);
}
);
width = 960;
}
);
unicode = 002D;
},
{
glyphname = endash;
lastChange = "2022-04-14 02:57:34 +0000";
layers = (
{
components = (
{
name = corner;
transform = "{0.3, 0, 0, 0.26, 440, 168}";
},
{
name = corner;
transform = "{-0.3, 0, 0, -0.26, 160, 552}";
},
{
name = corner;
transform = "{-0.3, 0, 0, 0.26, 160, 168}";
},
{
name = corner;
transform = "{0.3, 0, 0, -0.26, 440, 552}";
}
);
layerId = "4B7577DA-40A8-4E49-84C6-E8CA9EFA7FA1";
paths = (
{
closed = 1;
nodes = (
"560 370 LINE",
"560 350 LINE",
"40 350 LINE",
"40 370 LINE"
);
}
);
width = 600;
},
{
components = (
{
name = corner;
transform = "{0.6, 0, 0, 0.26, 880, 168}";
},
{
name = corner;
transform = "{-0.6, 0, 0, -0.26, 320, 552}";
},
{
name = corner;
transform = "{-0.6, 0, 0, 0.26, 320, 168}";
},
{
name = corner;
transform = "{0.6, 0, 0, -0.26, 880, 552}";
}
);
layerId = m003;
paths = (
{
closed = 1;
nodes = (
"1120 370 LINE",
"1120 350 LINE",
"80 350 LINE",
"80 370 LINE"
);
}
);
width = 1200;
}
);
leftMetricsKey = hyphen;
rightMetricsKey = hyphen;
unicode = 2013;
},
{
glyphname = emdash;
lastChange = "2022-04-14 02:57:49 +0000";
layers = (
{
components = (
{
name = corner;
transform = "{0.3, 0, 0, 0.26, 600, 168}";
},
{
name = corner;
transform = "{-0.3, 0, 0, -0.26, 160, 552}";
},
{
name = corner;
transform = "{-0.3, 0, 0, 0.26, 160, 168}";
},
{
name = corner;
transform = "{0.3, 0, 0, -0.26, 600, 552}";
}
);
layerId = "4B7577DA-40A8-4E49-84C6-E8CA9EFA7FA1";
paths = (
{
closed = 1;
nodes = (
"720 370 LINE",
"720 350 LINE",
"40 350 LINE",
"40 370 LINE"
);
}
);
width = 760;
},
{
components = (
{
name = corner;
transform = "{0.6, 0, 0, 0.26, 1200, 168}";
},
{
name = corner;
transform = "{-0.6, 0, 0, -0.26, 320, 552}";
},
{
name = corner;
transform = "{-0.6, 0, 0, 0.26, 320, 168}";
},
{
name = corner;
transform = "{0.6, 0, 0, -0.26, 1200, 552}";
}
);
layerId = m003;
paths = (
{
closed = 1;
nodes = (
"1440 370 LINE",
"1440 350 LINE",
"80 350 LINE",
"80 370 LINE"
);
}
);
width = 1520;
}
);
leftMetricsKey = hyphen;
rightMetricsKey = hyphen;
unicode = 2014;
},
{
export = 0;
glyphname = corner;
lastChange = "2022-04-07 02:51:03 +0000";
layers = (
{
layerId = "4B7577DA-40A8-4E49-84C6-E8CA9EFA7FA1";
paths = (
{
closed = 1;
nodes = (
"400 518 OFFCURVE",
"218 700 OFFCURVE",
"0 700 CURVE",
"400 700 LINE",
"400 300 LINE"
);
}
);
width = 400;
},
{
layerId = m003;
paths = (
{
closed = 1;
nodes = (
"400 518 OFFCURVE",
"218 700 OFFCURVE",
"0 700 CURVE",
"400 700 LINE",
"400 300 LINE"
);
}
);
width = 400;
}
);
},
{
export = 0;
glyphname = corner2;
lastChange = "2022-04-07 02:51:03 +0000";
layers = (
{
layerId = "4B7577DA-40A8-4E49-84C6-E8CA9EFA7FA1";
paths = (
{
closed = 1;
nodes = (
"23 615 OFFCURVE",
"23 615 OFFCURVE",
"94 544 CURVE",
"0 700 LINE",
"0 517 LINE"
);
}
);
width = 94;
},
{
layerId = m003;
paths = (
{
closed = 1;
nodes = (
"23 615 OFFCURVE",
"23 615 OFFCURVE",
"94 544 CURVE",
"0 700 LINE",
"0 517 LINE"
);
}
);
width = 94;
}
);
},
{
export = 0;
glyphname = corner2.001;
lastChange = "2022-04-07 02:51:03 +0000";
layers = (
{
layerId = "4B7577DA-40A8-4E49-84C6-E8CA9EFA7FA1";
paths = (
{
closed = 1;
nodes = (
"51 586 OFFCURVE",
"51 586 OFFCURVE",
"0 675 CURVE",
"50 500 LINE",
"100 675 LINE"
);
}
